# xmcd
#
# Track frame offsets:
#	150
#	47166
#	64242
#	97663
#	124280
#	154535
#	180746
#	211015
#	226570
#
# Disc length: 3404 seconds
#
# Revision: 1
# Processed by: cddbd v1.5.2PL0 Copyright (c) Steve Scherf et al.
# Submitted via: audiograbber 1.83.01
#
DISCID=680d4a09
DTITLE=Grateful Dead - 71-12-31 Winterland Arena, San Francisco CA
DYEAR=1900
DGENRE=
TTITLE0=Jam > Black Peter
TTITLE1=Big River
TTITLE2=The Same Thing
TTITLE3=Ramble On Rose
TTITLE4=Sugar Magnolia
TTITLE5=Not Fade Away
TTITLE6=Going Down The Road Feeling Bad
TTITLE7=Not Fade Away
TTITLE8=Casey Jones
EXTD=
EXTT0=
EXTT1=
EXTT2=
EXTT3=
EXTT4=
EXTT5=
EXTT6=
EXTT7=
EXTT8=
PLAYORDER=
